<mxfile host="app.diagrams.net" modified="2022-07-22T14:42:34.407Z" agent="5.0 (Windows NT 10.0; Win64; x64) AppleWebKit/537.36 (KHTML, like Gecko) Chrome/103.0.0.0 Safari/537.36" etag="Wv69v6s0N2vMFNbS88p6" version="20.1.1" type="github">
  <diagram id="P9jer3ssEf0ignGrszvi" name="Page-1">
    <mxGraphModel dx="1185" dy="635" grid="1" gridSize="10" guides="1" tooltips="1" connect="1" arrows="1" fold="1" page="1" pageScale="1" pageWidth="850" pageHeight="1100" math="0" shadow="0">
      <root>
        <mxCell id="0" />
        <mxCell id="1" parent="0" />
        <mxCell id="ZpMVnMomHQZX6EwnOePA-6" value="Resource" style="swimlane;fontStyle=0;childLayout=stackLayout;horizontal=1;startSize=26;fillColor=#dae8fc;horizontalStack=0;resizeParent=1;resizeParentMax=0;resizeLast=0;collapsible=1;marginBottom=0;strokeColor=#6c8ebf;" parent="1" vertex="1">
          <mxGeometry x="70" y="70" width="160" height="100" as="geometry" />
        </mxCell>
        <mxCell id="ZpMVnMomHQZX6EwnOePA-13" style="edgeStyle=orthogonalEdgeStyle;rounded=0;orthogonalLoop=1;jettySize=auto;html=1;entryX=0.5;entryY=1;entryDx=0;entryDy=0;endArrow=block;endFill=0;fillColor=#dae8fc;strokeColor=#6c8ebf;" parent="1" source="ZpMVnMomHQZX6EwnOePA-8" target="ZpMVnMomHQZX6EwnOePA-6" edge="1">
          <mxGeometry relative="1" as="geometry" />
        </mxCell>
        <mxCell id="ZpMVnMomHQZX6EwnOePA-8" value="ResourceWithPorts" style="swimlane;fontStyle=0;childLayout=stackLayout;horizontal=1;startSize=26;fillColor=#fff2cc;horizontalStack=0;resizeParent=1;resizeParentMax=0;resizeLast=0;collapsible=1;marginBottom=0;strokeColor=#d6b656;" parent="1" vertex="1">
          <mxGeometry y="200" width="160" height="95" as="geometry" />
        </mxCell>
        <mxCell id="ZpMVnMomHQZX6EwnOePA-16" style="edgeStyle=orthogonalEdgeStyle;rounded=0;orthogonalLoop=1;jettySize=auto;html=1;entryX=0.5;entryY=1;entryDx=0;entryDy=0;endArrow=block;endFill=0;fillColor=#fff2cc;strokeColor=#d6b656;" parent="1" source="ZpMVnMomHQZX6EwnOePA-9" target="ZpMVnMomHQZX6EwnOePA-8" edge="1">
          <mxGeometry relative="1" as="geometry" />
        </mxCell>
        <mxCell id="ZpMVnMomHQZX6EwnOePA-9" value="Device" style="swimlane;fontStyle=0;childLayout=stackLayout;horizontal=1;startSize=26;fillColor=#ffe6cc;horizontalStack=0;resizeParent=1;resizeParentMax=0;resizeLast=0;collapsible=1;marginBottom=0;strokeColor=#d79b00;" parent="1" vertex="1">
          <mxGeometry y="370" width="160" height="100" as="geometry" />
        </mxCell>
        <mxCell id="ZpMVnMomHQZX6EwnOePA-10" value="Topology&#xa;" style="swimlane;fontStyle=0;childLayout=stackLayout;horizontal=1;startSize=26;fillColor=#d5e8d4;horizontalStack=0;resizeParent=1;resizeParentMax=0;resizeLast=0;collapsible=1;marginBottom=0;strokeColor=#82b366;" parent="1" vertex="1">
          <mxGeometry x="580" y="80" width="160" height="100" as="geometry" />
        </mxCell>
        <mxCell id="ZpMVnMomHQZX6EwnOePA-14" style="edgeStyle=orthogonalEdgeStyle;rounded=0;orthogonalLoop=1;jettySize=auto;html=1;exitX=0.5;exitY=0;exitDx=0;exitDy=0;endArrow=block;endFill=0;fillColor=#dae8fc;strokeColor=#6c8ebf;strokeWidth=2;" parent="1" source="ZpMVnMomHQZX6EwnOePA-11" edge="1">
          <mxGeometry relative="1" as="geometry">
            <Array as="points">
              <mxPoint x="530" y="550" />
              <mxPoint x="530" y="80" />
            </Array>
            <mxPoint x="230" y="80" as="targetPoint" />
          </mxGeometry>
        </mxCell>
        <mxCell id="72MZL3NQn3z5F6fI8JdT-3" style="edgeStyle=orthogonalEdgeStyle;rounded=0;orthogonalLoop=1;jettySize=auto;html=1;endArrow=diamond;endFill=0;endSize=13;fillColor=#f8cecc;strokeColor=#b85450;" edge="1" parent="1" source="ZpMVnMomHQZX6EwnOePA-11">
          <mxGeometry relative="1" as="geometry">
            <mxPoint x="390" y="240" as="targetPoint" />
            <Array as="points">
              <mxPoint x="680" y="240" />
            </Array>
          </mxGeometry>
        </mxCell>
        <mxCell id="72MZL3NQn3z5F6fI8JdT-5" style="edgeStyle=orthogonalEdgeStyle;rounded=0;orthogonalLoop=1;jettySize=auto;html=1;entryX=1;entryY=0.25;entryDx=0;entryDy=0;endArrow=diamond;endFill=0;endSize=13;fillColor=#f8cecc;strokeColor=#b85450;" edge="1" parent="1" source="ZpMVnMomHQZX6EwnOePA-11" target="ZpMVnMomHQZX6EwnOePA-18">
          <mxGeometry relative="1" as="geometry">
            <Array as="points">
              <mxPoint x="510" y="630" />
              <mxPoint x="510" y="310" />
            </Array>
          </mxGeometry>
        </mxCell>
        <mxCell id="72MZL3NQn3z5F6fI8JdT-7" style="edgeStyle=orthogonalEdgeStyle;rounded=0;orthogonalLoop=1;jettySize=auto;html=1;entryX=1;entryY=0.75;entryDx=0;entryDy=0;endArrow=diamond;endFill=0;endSize=13;fillColor=#f8cecc;strokeColor=#b85450;" edge="1" parent="1" source="ZpMVnMomHQZX6EwnOePA-11" target="ZpMVnMomHQZX6EwnOePA-20">
          <mxGeometry relative="1" as="geometry">
            <Array as="points">
              <mxPoint x="470" y="630" />
              <mxPoint x="470" y="520" />
              <mxPoint x="430" y="520" />
              <mxPoint x="430" y="523" />
            </Array>
          </mxGeometry>
        </mxCell>
        <mxCell id="72MZL3NQn3z5F6fI8JdT-8" style="edgeStyle=orthogonalEdgeStyle;rounded=0;orthogonalLoop=1;jettySize=auto;html=1;entryX=1;entryY=0.75;entryDx=0;entryDy=0;endArrow=diamond;endFill=0;endSize=13;exitX=0.25;exitY=1;exitDx=0;exitDy=0;fillColor=#f8cecc;strokeColor=#b85450;" edge="1" parent="1" source="ZpMVnMomHQZX6EwnOePA-11" target="ZpMVnMomHQZX6EwnOePA-19">
          <mxGeometry relative="1" as="geometry">
            <mxPoint x="450" y="520" as="sourcePoint" />
            <Array as="points">
              <mxPoint x="560" y="680" />
              <mxPoint x="560" y="670" />
              <mxPoint x="420" y="670" />
              <mxPoint x="420" y="613" />
            </Array>
          </mxGeometry>
        </mxCell>
        <mxCell id="72MZL3NQn3z5F6fI8JdT-9" style="edgeStyle=orthogonalEdgeStyle;rounded=0;orthogonalLoop=1;jettySize=auto;html=1;entryX=1;entryY=0.75;entryDx=0;entryDy=0;endArrow=diamond;endFill=0;endSize=13;fillColor=#f8cecc;strokeColor=#b85450;" edge="1" parent="1" source="ZpMVnMomHQZX6EwnOePA-11" target="ZpMVnMomHQZX6EwnOePA-21">
          <mxGeometry relative="1" as="geometry">
            <Array as="points">
              <mxPoint x="720" y="438" />
              <mxPoint x="555" y="438" />
            </Array>
          </mxGeometry>
        </mxCell>
        <mxCell id="ZpMVnMomHQZX6EwnOePA-11" value="Port&#xa;" style="swimlane;fontStyle=0;childLayout=stackLayout;horizontal=1;startSize=26;fillColor=#f8cecc;horizontalStack=0;resizeParent=1;resizeParentMax=0;resizeLast=0;collapsible=1;marginBottom=0;strokeColor=#b85450;" parent="1" vertex="1">
          <mxGeometry x="580" y="580" width="160" height="100" as="geometry" />
        </mxCell>
        <mxCell id="ZpMVnMomHQZX6EwnOePA-22" style="edgeStyle=orthogonalEdgeStyle;rounded=0;orthogonalLoop=1;jettySize=auto;html=1;entryX=1;entryY=0.5;entryDx=0;entryDy=0;endArrow=block;endFill=0;fillColor=#fff2cc;strokeColor=#d6b656;" parent="1" source="ZpMVnMomHQZX6EwnOePA-17" target="ZpMVnMomHQZX6EwnOePA-8" edge="1">
          <mxGeometry relative="1" as="geometry" />
        </mxCell>
        <mxCell id="72MZL3NQn3z5F6fI8JdT-12" style="edgeStyle=orthogonalEdgeStyle;rounded=0;orthogonalLoop=1;jettySize=auto;html=1;entryX=0;entryY=0.25;entryDx=0;entryDy=0;endArrow=diamond;endFill=0;endSize=13;fillColor=#d5e8d4;strokeColor=#82b366;" edge="1" parent="1" source="ZpMVnMomHQZX6EwnOePA-17" target="ZpMVnMomHQZX6EwnOePA-10">
          <mxGeometry relative="1" as="geometry" />
        </mxCell>
        <mxCell id="ZpMVnMomHQZX6EwnOePA-17" value="Vlan&#xa;" style="swimlane;fontStyle=0;childLayout=stackLayout;horizontal=1;startSize=26;fillColor=none;horizontalStack=0;resizeParent=1;resizeParentMax=0;resizeLast=0;collapsible=1;marginBottom=0;" parent="1" vertex="1">
          <mxGeometry x="230" y="195" width="160" height="72.5" as="geometry" />
        </mxCell>
        <mxCell id="ZpMVnMomHQZX6EwnOePA-23" style="edgeStyle=orthogonalEdgeStyle;rounded=0;orthogonalLoop=1;jettySize=auto;html=1;entryX=1;entryY=0.75;entryDx=0;entryDy=0;endArrow=block;endFill=0;fillColor=#fff2cc;strokeColor=#d6b656;" parent="1" source="ZpMVnMomHQZX6EwnOePA-18" target="ZpMVnMomHQZX6EwnOePA-8" edge="1">
          <mxGeometry relative="1" as="geometry" />
        </mxCell>
        <mxCell id="ZpMVnMomHQZX6EwnOePA-26" style="edgeStyle=orthogonalEdgeStyle;rounded=0;orthogonalLoop=1;jettySize=auto;html=1;entryX=0.5;entryY=1;entryDx=0;entryDy=0;endArrow=block;endFill=0;fillColor=#ffe6cc;strokeColor=#d79b00;" parent="1" source="ZpMVnMomHQZX6EwnOePA-19" target="ZpMVnMomHQZX6EwnOePA-9" edge="1">
          <mxGeometry relative="1" as="geometry" />
        </mxCell>
        <mxCell id="72MZL3NQn3z5F6fI8JdT-16" style="edgeStyle=orthogonalEdgeStyle;rounded=0;orthogonalLoop=1;jettySize=auto;html=1;entryX=0.5;entryY=1;entryDx=0;entryDy=0;endArrow=diamond;endFill=0;endSize=13;fillColor=#d5e8d4;strokeColor=#82b366;" edge="1" parent="1" source="ZpMVnMomHQZX6EwnOePA-19" target="ZpMVnMomHQZX6EwnOePA-10">
          <mxGeometry relative="1" as="geometry">
            <Array as="points">
              <mxPoint x="310" y="550" />
              <mxPoint x="590" y="550" />
              <mxPoint x="590" y="200" />
              <mxPoint x="660" y="200" />
            </Array>
          </mxGeometry>
        </mxCell>
        <mxCell id="ZpMVnMomHQZX6EwnOePA-19" value="OpticalDevice&#xa;" style="swimlane;fontStyle=0;childLayout=stackLayout;horizontal=1;startSize=26;fillColor=none;horizontalStack=0;resizeParent=1;resizeParentMax=0;resizeLast=0;collapsible=1;marginBottom=0;" parent="1" vertex="1">
          <mxGeometry x="230" y="560" width="160" height="70" as="geometry" />
        </mxCell>
        <mxCell id="ZpMVnMomHQZX6EwnOePA-25" style="edgeStyle=orthogonalEdgeStyle;rounded=0;orthogonalLoop=1;jettySize=auto;html=1;entryX=0.75;entryY=1;entryDx=0;entryDy=0;endArrow=block;endFill=0;fillColor=#ffe6cc;strokeColor=#d79b00;" parent="1" source="ZpMVnMomHQZX6EwnOePA-20" target="ZpMVnMomHQZX6EwnOePA-9" edge="1">
          <mxGeometry relative="1" as="geometry" />
        </mxCell>
        <mxCell id="72MZL3NQn3z5F6fI8JdT-15" style="edgeStyle=orthogonalEdgeStyle;rounded=0;orthogonalLoop=1;jettySize=auto;html=1;entryX=0.75;entryY=1;entryDx=0;entryDy=0;endArrow=diamond;endFill=0;endSize=13;fillColor=#d5e8d4;strokeColor=#82b366;" edge="1" parent="1" source="ZpMVnMomHQZX6EwnOePA-20" target="ZpMVnMomHQZX6EwnOePA-10">
          <mxGeometry relative="1" as="geometry" />
        </mxCell>
        <mxCell id="ZpMVnMomHQZX6EwnOePA-20" value="PcDevice" style="swimlane;fontStyle=0;childLayout=stackLayout;horizontal=1;startSize=26;fillColor=none;horizontalStack=0;resizeParent=1;resizeParentMax=0;resizeLast=0;collapsible=1;marginBottom=0;" parent="1" vertex="1">
          <mxGeometry x="230" y="470" width="160" height="70" as="geometry" />
        </mxCell>
        <mxCell id="ZpMVnMomHQZX6EwnOePA-24" style="edgeStyle=orthogonalEdgeStyle;rounded=0;orthogonalLoop=1;jettySize=auto;html=1;entryX=1;entryY=0.5;entryDx=0;entryDy=0;endArrow=block;endFill=0;fillColor=#ffe6cc;strokeColor=#d79b00;" parent="1" source="ZpMVnMomHQZX6EwnOePA-21" target="ZpMVnMomHQZX6EwnOePA-9" edge="1">
          <mxGeometry relative="1" as="geometry" />
        </mxCell>
        <mxCell id="72MZL3NQn3z5F6fI8JdT-14" style="edgeStyle=orthogonalEdgeStyle;rounded=0;orthogonalLoop=1;jettySize=auto;html=1;entryX=0.25;entryY=1;entryDx=0;entryDy=0;endArrow=diamond;endFill=0;endSize=13;fillColor=#d5e8d4;strokeColor=#82b366;" edge="1" parent="1" source="ZpMVnMomHQZX6EwnOePA-21" target="ZpMVnMomHQZX6EwnOePA-10">
          <mxGeometry relative="1" as="geometry" />
        </mxCell>
        <mxCell id="ZpMVnMomHQZX6EwnOePA-21" value="RadioDevice" style="swimlane;fontStyle=0;childLayout=stackLayout;horizontal=1;startSize=26;fillColor=none;horizontalStack=0;resizeParent=1;resizeParentMax=0;resizeLast=0;collapsible=1;marginBottom=0;" parent="1" vertex="1">
          <mxGeometry x="230" y="385" width="160" height="70" as="geometry" />
        </mxCell>
        <mxCell id="72MZL3NQn3z5F6fI8JdT-13" style="edgeStyle=orthogonalEdgeStyle;rounded=0;orthogonalLoop=1;jettySize=auto;html=1;endArrow=diamond;endFill=0;endSize=13;entryX=0;entryY=0.5;entryDx=0;entryDy=0;fillColor=#d5e8d4;strokeColor=#82b366;" edge="1" parent="1" source="ZpMVnMomHQZX6EwnOePA-18" target="ZpMVnMomHQZX6EwnOePA-10">
          <mxGeometry relative="1" as="geometry">
            <mxPoint x="540" y="301.37931034482756" as="targetPoint" />
          </mxGeometry>
        </mxCell>
        <mxCell id="ZpMVnMomHQZX6EwnOePA-18" value="Multivlan&#xa;" style="swimlane;fontStyle=0;childLayout=stackLayout;horizontal=1;startSize=26;fillColor=none;horizontalStack=0;resizeParent=1;resizeParentMax=0;resizeLast=0;collapsible=1;marginBottom=0;" parent="1" vertex="1">
          <mxGeometry x="230" y="290" width="160" height="80" as="geometry" />
        </mxCell>
      </root>
    </mxGraphModel>
  </diagram>
</mxfile>
